<svg width="968" height="1000" viewBox="0 0 968 1000" fill="none" xmlns="http://www.w3.org/2000/svg">
<g filter="url(#filter0_d_67_95)">
<path d="M450.911 863.842C448.134 848.676 445.242 833.551 442.236 818.467C426.924 741.614 408.657 665.819 387.437 591.084L368.147 630.25C426.209 614.269 483.693 596.561 540.598 577.126C561.295 570.057 581.916 562.76 602.46 555.235L631.087 546.157L626.17 515.262C602.909 402.172 572.835 290.389 535.949 179.913C531.083 165.337 526.097 150.785 520.994 136.255C521.354 151.694 521.833 167.111 522.431 182.505C526.96 299.186 538.303 414.561 556.458 528.63L580.168 488.657C559.318 495.269 538.544 502.109 517.847 509.178C460.942 528.612 404.614 549.774 348.865 572.663L318.302 585.211L329.575 611.829C359.851 683.317 393.081 753.747 429.265 823.118C436.366 836.733 443.582 850.308 450.911 863.842Z" fill="url(#paint0_linear_67_95)"/>
</g>
<g filter="url(#filter1_d_67_95)">
<path d="M432.742 639.572L633 571.842L608.896 711.937L515.327 774.212L489.364 857.538L432.742 639.572Z" fill="url(#paint1_linear_67_95)" shape-rendering="crispEdges"/>
<path d="M523.5 476.342L316.5 555.342L368.414 446.406L446.36 381.241L501.587 141.233L523.5 476.342Z" fill="url(#paint2_linear_67_95)" shape-rendering="crispEdges"/>
</g>
<g filter="url(#filter2_dd_67_95)">
<path d="M745.834 529.762C737.301 529.841 728.771 529.952 720.244 530.097C689.067 530.625 657.932 531.593 626.841 533.002L626.715 533.014C581.327 535.861 536.047 539.647 490.875 544.371C490.013 544.461 489.151 544.552 488.289 544.642L489.035 544.592C440.77 546.129 392.546 548.73 344.364 552.397L344.344 552.398C317.021 554.561 289.714 557.067 262.421 559.915C253.946 560.8 245.472 561.717 237 562.668C245.528 563.039 254.056 563.377 262.581 563.682C290.037 564.664 317.479 565.304 344.906 565.601L344.885 565.601C393.238 566.271 441.548 565.877 489.817 564.417L490.563 564.366C491.426 564.276 492.288 564.187 493.15 564.096C538.322 559.372 583.385 553.709 628.34 547.107L628.214 547.119C659.055 543.137 689.853 538.714 720.609 533.851C729.02 532.521 737.429 531.158 745.834 529.762Z" fill="#A1D7DA"/>
</g>
<defs>
<filter id="filter0_d_67_95" x="72.065" y="-111.855" width="780.917" height="1195.72" filterUnits="userSpaceOnUse" color-interpolation-filters="sRGB">
<feFlood flood-opacity="0" result="BackgroundImageFix"/>
<feColorMatrix in="SourceAlpha" type="matrix" values="0 0 0 0 0 0 0 0 0 0 0 0 0 0 0 0 0 0 127 0" result="hardAlpha"/>
<feOffset dx="-12.1714" dy="-14.044"/>
<feGaussianBlur stdDeviation="117.033"/>
<feComposite in2="hardAlpha" operator="out"/>
<feColorMatrix type="matrix" values="0 0 0 0 0.509804 0 0 0 0 0.537255 0 0 0 0 0.560784 0 0 0 0.25 0"/>
<feBlend mode="screen" in2="BackgroundImageFix" result="effect1_dropShadow_67_95"/>
<feBlend mode="normal" in="SourceGraphic" in2="effect1_dropShadow_67_95" result="shape"/>
</filter>
<filter id="filter1_d_67_95" x="28.1601" y="-149.299" width="864.674" height="1264.48" filterUnits="userSpaceOnUse" color-interpolation-filters="sRGB">
<feFlood flood-opacity="0" result="BackgroundImageFix"/>
<feColorMatrix in="SourceAlpha" type="matrix" values="0 0 0 0 0 0 0 0 0 0 0 0 0 0 0 0 0 0 127 0" result="hardAlpha"/>
<feOffset dx="-14.2525" dy="-16.4452"/>
<feGaussianBlur stdDeviation="137.044"/>
<feComposite in2="hardAlpha" operator="out"/>
<feColorMatrix type="matrix" values="0 0 0 0 0.509804 0 0 0 0 0.537255 0 0 0 0 0.560784 0 0 0 0.25 0"/>
<feBlend mode="screen" in2="BackgroundImageFix" result="effect1_dropShadow_67_95"/>
<feBlend mode="normal" in="SourceGraphic" in2="effect1_dropShadow_67_95" result="shape"/>
</filter>
<filter id="filter2_dd_67_95" x="-9.23749" y="281.652" width="976.966" height="504.287" filterUnits="userSpaceOnUse" color-interpolation-filters="sRGB">
<feFlood flood-opacity="0" result="BackgroundImageFix"/>
<feColorMatrix in="SourceAlpha" type="matrix" values="0 0 0 0 0 0 0 0 0 0 0 0 0 0 0 0 0 0 127 0" result="hardAlpha"/>
<feOffset dx="-12.1714" dy="-14.044"/>
<feGaussianBlur stdDeviation="117.033"/>
<feComposite in2="hardAlpha" operator="out"/>
<feColorMatrix type="matrix" values="0 0 0 0 0.509804 0 0 0 0 0.537255 0 0 0 0 0.560784 0 0 0 0.25 0"/>
<feBlend mode="screen" in2="BackgroundImageFix" result="effect1_dropShadow_67_95"/>
<feColorMatrix in="SourceAlpha" type="matrix" values="0 0 0 0 0 0 0 0 0 0 0 0 0 0 0 0 0 0 127 0" result="hardAlpha"/>
<feOffset dy="4"/>
<feGaussianBlur stdDeviation="10.6"/>
<feComposite in2="hardAlpha" operator="out"/>
<feColorMatrix type="matrix" values="0 0 0 0 0 0 0 0 0 0 0 0 0 0 0 0 0 0 0.25 0"/>
<feBlend mode="normal" in2="effect1_dropShadow_67_95" result="effect2_dropShadow_67_95"/>
<feBlend mode="normal" in="SourceGraphic" in2="effect2_dropShadow_67_95" result="shape"/>
</filter>
<linearGradient id="paint0_linear_67_95" x1="421.5" y1="509" x2="390.685" y2="759.084" gradientUnits="userSpaceOnUse">
<stop stop-color="#9AA1A7"/>
<stop offset="1" stop-color="#243748" stop-opacity="0.2"/>
</linearGradient>
<linearGradient id="paint1_linear_67_95" x1="429.591" y1="320.27" x2="464.917" y2="801.429" gradientUnits="userSpaceOnUse">
<stop offset="0.408654" stop-color="#9AA1A7"/>
<stop offset="1" stop-color="#243748" stop-opacity="0.2"/>
</linearGradient>
<linearGradient id="paint2_linear_67_95" x1="429.591" y1="320.27" x2="464.917" y2="801.429" gradientUnits="userSpaceOnUse">
<stop offset="0.408654" stop-color="#9AA1A7"/>
<stop offset="1" stop-color="#243748" stop-opacity="0.2"/>
</linearGradient>
</defs>
</svg>
